<?xml version="1.0" encoding="utf-8"?>
<!-- Generator: Adobe Illustrator 25.0.1, SVG Export Plug-In . SVG Version: 6.00 Build 0)  -->
<svg version="1.1" id="Layer_1" xmlns="http://www.w3.org/2000/svg" xmlns:xlink="http://www.w3.org/1999/xlink" x="0px" y="0px"
	 viewBox="0 0 243.8 379.8" style="enable-background:new 0 0 243.8 379.8;" xml:space="preserve">
<style type="text/css">
	.st0{fill:none;stroke:#000000;stroke-width:0.25;stroke-miterlimit:11.3386;}
</style>
<path class="st0" d="M221.8,350.8h22V29.1h-22V0.7H22.7V29L0,29.1v321.7h22v28.3h199.8V350.8z M8.5,47.3l-1.3-2.1v-2.5l1.3-2.1
	l2.3-1l2.5,0.4l1.9,1.6l0.7,2.4L15,46.3l-1.9,1.6l-2.5,0.4L8.5,47.3z M229.6,47.3l-1.3-2.1v-2.5l1.3-2.1l2.3-1l2.5,0.4l1.9,1.6
	l0.7,2.4l-0.7,2.4l-1.9,1.6l-2.5,0.4L229.6,47.3z M55.5,163.1V40.7h162.3v122.4H55.5z M8.5,166.3l-1.3-2.1v-2.5l1.3-2.1l2.3-1
	l2.5,0.4l1.9,1.6l0.7,2.4l-0.7,2.4l-1.9,1.6l-2.5,0.4L8.5,166.3z M229.6,166.3l-1.3-2.1v-2.5l1.3-2.1l2.3-1l2.5,0.4l1.9,1.6l0.7,2.4
	l-0.7,2.4l-1.9,1.6l-2.5,0.4L229.6,166.3z M69,193l-0.9-1.3v-1.6l0.9-1.3l1.5-0.7l1.6,0.2l1.2,1l0.4,1.5l-0.4,1.5l-1.2,1l-1.6,0.2
	L69,193z M102.7,193l-0.9-1.3v-1.6l0.9-1.3l1.5-0.7l1.6,0.2l1.2,1l0.5,1.5l-0.5,1.5l-1.2,1l-1.6,0.2L102.7,193z M136.3,193l-0.9-1.3
	v-1.6l0.9-1.3l1.5-0.7l1.6,0.2l1.2,1l0.4,1.5l-0.4,1.5l-1.2,1l-1.6,0.2L136.3,193z M170,193l-0.9-1.3v-1.6l0.9-1.3l1.5-0.7l1.6,0.2
	l1.2,1l0.5,1.5l-0.5,1.5l-1.2,1l-1.6,0.2L170,193z M203.6,193l-0.9-1.3v-1.6l0.9-1.3l1.5-0.7l1.6,0.2l1.2,1l0.5,1.5l-0.5,1.5l-1.2,1
	l-1.6,0.2L203.6,193z M31.1,233.1l-0.9-1.3v-1.6l0.9-1.3l1.5-0.7l1.6,0.2l1.2,1l0.4,1.5l-0.4,1.5l-1.2,1l-1.6,0.2L31.1,233.1z
	 M120,282.9l-0.9-1.3V280l0.9-1.3l1.5-0.7l1.6,0.2l1.2,1l0.5,1.5l-0.5,1.5l-1.2,1l-1.6,0.2L120,282.9z M8.5,337.1L7.1,335v-2.5
	l1.3-2.1l2.3-1l2.5,0.4l1.9,1.6l0.7,2.4l-0.7,2.4l-1.9,1.6l-2.5,0.4L8.5,337.1z M229.6,337.1l-1.3-2.1v-2.5l1.3-2.1l2.3-1l2.5,0.4
	l1.9,1.6l0.7,2.4l-0.7,2.4l-1.9,1.6l-2.5,0.4L229.6,337.1z M100.3,353.2v-10.8h43.2v10.8H100.3z"/>
</svg>
